<svg width="70" height="48" viewBox="0 0 70 48" fill="none" xmlns="http://www.w3.org/2000/svg">
<path fill-rule="evenodd" clip-rule="evenodd" d="M23.364 1.80502C22.8191 2.79791 19.6529 8.70768 16.3277 14.9381C13.0027 21.1686 9.83546 27.0813 9.28937 28.0777L8.29681 29.8889L9.25416 29.5185C9.78078 29.3146 13.116 28.1429 16.666 26.9148C20.2163 25.6864 23.1503 24.6459 23.1862 24.6023C23.2224 24.559 24.2884 22.7308 25.5554 20.5399C26.8223 18.349 27.9463 16.465 28.0531 16.3535C28.16 16.242 32.6217 16.286 37.9682 16.4516L47.6891 16.7524L58.4659 8.56278C64.3931 4.05869 69.2478 0.289551 69.2542 0.186727C69.2605 0.0839025 59.1608 0 46.8101 0H24.3546L23.364 1.80502ZM53.5346 20.9574C49.6205 22.3173 46.2888 23.5639 46.1307 23.7277C45.9724 23.8915 44.8098 25.8181 43.5466 28.009C42.2833 30.1999 41.2328 32.0077 41.2121 32.0261C41.1914 32.0445 36.7922 31.9195 31.4361 31.7482C26.08 31.5767 21.5854 31.5177 21.448 31.617C21.3107 31.7161 16.4288 35.4265 10.599 39.8619L0 47.9265L22.4461 47.99C34.7915 48.0251 44.9811 47.9651 45.0897 47.8568C45.3769 47.5705 60.8203 18.6321 60.7285 18.5524C60.6858 18.5153 57.4486 19.5978 53.5346 20.9574Z" fill="#70B44E"/>
</svg>
